<?xml version="1.0" standalone="no"?>
<!DOCTYPE svg PUBLIC "-//W3C//DTD SVG 20010904//EN"
 "http://www.w3.org/TR/2001/REC-SVG-20010904/DTD/svg10.dtd">
<svg version="1.0" xmlns="http://www.w3.org/2000/svg"
 width="128.000000pt" height="128.000000pt" viewBox="0 0 128.000000 128.000000"
 preserveAspectRatio="xMidYMid meet">
<metadata>
Created by potrace 1.14, written by Peter Selinger 2001-2017
</metadata>
<g transform="translate(0.000000,128.000000) scale(0.100000,-0.100000)"
fill="#000000" stroke="none">
<path d="M572 1250 c-19 -18 -41 -30 -57 -30 -15 0 -41 -6 -58 -14 -18 -8 -73
-16 -123 -18 -103 -4 -144 -22 -181 -78 l-23 -33 0 -482 0 -482 23 -34 c12
-18 38 -44 56 -56 34 -23 35 -23 429 -23 380 0 396 1 431 21 20 11 45 32 56
47 19 26 20 45 23 518 l3 490 -23 34 c-38 57 -79 74 -188 78 -58 3 -103 10
-115 18 -11 8 -35 14 -53 14 -24 0 -42 9 -64 30 -22 23 -39 30 -68 30 -29 0
-46 -7 -68 -30z m93 -65 c0 -22 -31 -33 -47 -17 -17 17 -1 44 24 40 15 -2 23
-10 23 -23z m-95 -65 c23 -24 36 -30 70 -30 34 0 47 6 71 31 21 22 36 30 56
27 27 -3 28 -6 31 -60 l3 -58 -161 0 -160 0 0 53 c0 30 3 57 7 60 16 16 57 5
83 -23z m-158 -55 c3 -40 11 -62 28 -80 23 -25 25 -25 200 -25 175 0 177 0
200 25 17 18 25 40 28 81 l5 56 78 -4 c70 -3 82 -6 106 -31 l28 -27 3 -438 c2
-240 0 -452 -3 -471 -4 -18 -17 -44 -30 -57 l-24 -24 -391 0 -391 0 -24 24
c-13 13 -26 39 -30 57 -3 19 -5 230 -3 470 3 421 4 438 23 459 28 32 51 39
126 39 l67 1 4 -55z"/>
<path d="M469 786 c-26 -37 -35 -43 -50 -36 -33 18 -59 12 -59 -13 0 -17 10
-28 35 -40 20 -9 44 -17 54 -17 22 0 94 104 89 128 -7 34 -37 24 -69 -22z"/>
<path d="M625 756 c-11 -8 -16 -19 -12 -30 6 -14 26 -16 157 -16 l150 0 0 24
c0 31 -19 36 -161 36 -81 0 -121 -4 -134 -14z"/>
<path d="M466 559 c-21 -30 -32 -39 -44 -33 -35 14 -57 10 -60 -13 -3 -17 6
-27 38 -43 23 -12 48 -19 56 -16 22 8 87 114 81 131 -11 28 -44 16 -71 -26z"/>
<path d="M614 525 c-4 -8 -1 -22 6 -30 11 -13 38 -15 154 -13 l141 3 0 25 0
25 -148 3 c-125 2 -148 0 -153 -13z"/>
<path d="M470 340 c-21 -35 -29 -40 -50 -34 -45 12 -55 9 -58 -12 -2 -16 7
-27 33 -43 54 -32 68 -27 109 35 40 59 43 87 11 92 -14 2 -27 -9 -45 -38z"/>
<path d="M620 305 c-7 -8 -10 -22 -6 -30 5 -13 28 -15 153 -13 l148 3 0 25 0
25 -141 3 c-116 2 -143 0 -154 -13z"/>
</g>
</svg>
